<mxfile host="app.diagrams.net" modified="2023-11-14T08:08:31.157Z" agent="Mozilla/5.0 (Windows NT 10.0; Win64; x64) AppleWebKit/537.36 (KHTML, like Gecko) Chrome/119.0.0.0 Safari/537.36" etag="YHj_vt4KThc9mT8ECuOO" version="22.1.0" type="device">
  <diagram name="Page-1" id="lyWBpsCAur68983947pw">
    <mxGraphModel dx="1434" dy="750" grid="1" gridSize="10" guides="1" tooltips="1" connect="1" arrows="1" fold="1" page="1" pageScale="1" pageWidth="827" pageHeight="1169" math="0" shadow="0">
      <root>
        <mxCell id="0" />
        <mxCell id="1" parent="0" />
        <mxCell id="lyR57aAKPuqNMhiMZKxD-1" value="" style="rounded=0;whiteSpace=wrap;html=1;" vertex="1" parent="1">
          <mxGeometry x="34" y="80" width="760" height="480" as="geometry" />
        </mxCell>
        <mxCell id="lyR57aAKPuqNMhiMZKxD-20" value="_ _ _ _ _ _ _ _ _ _ _ _ _" style="rounded=1;whiteSpace=wrap;html=1;" vertex="1" parent="1">
          <mxGeometry x="525" y="270" width="220" height="40" as="geometry" />
        </mxCell>
        <mxCell id="lyR57aAKPuqNMhiMZKxD-21" value="Submit" style="rounded=1;whiteSpace=wrap;html=1;" vertex="1" parent="1">
          <mxGeometry x="660" y="410" width="80" height="30" as="geometry" />
        </mxCell>
        <mxCell id="lyR57aAKPuqNMhiMZKxD-22" value="Lettre a rentrer" style="rounded=1;whiteSpace=wrap;html=1;arcSize=0;" vertex="1" parent="1">
          <mxGeometry x="520" y="410" width="120" height="30" as="geometry" />
        </mxCell>
        <mxCell id="lyR57aAKPuqNMhiMZKxD-23" value="Historique des lettres" style="rounded=0;whiteSpace=wrap;html=1;" vertex="1" parent="1">
          <mxGeometry x="520" y="330" width="230" height="60" as="geometry" />
        </mxCell>
        <mxCell id="lyR57aAKPuqNMhiMZKxD-24" value="HANGMAN DESSIN" style="rounded=1;whiteSpace=wrap;html=1;" vertex="1" parent="1">
          <mxGeometry x="210" y="180" width="240" height="300" as="geometry" />
        </mxCell>
        <mxCell id="lyR57aAKPuqNMhiMZKxD-25" value="Titre niveau" style="rounded=1;whiteSpace=wrap;html=1;" vertex="1" parent="1">
          <mxGeometry x="331" y="100" width="166" height="40" as="geometry" />
        </mxCell>
        <mxCell id="lyR57aAKPuqNMhiMZKxD-27" value="Pseudo&lt;br&gt;Niveau&lt;br&gt;Points" style="rounded=1;whiteSpace=wrap;html=1;" vertex="1" parent="1">
          <mxGeometry x="650" y="100" width="120" height="60" as="geometry" />
        </mxCell>
        <mxCell id="lyR57aAKPuqNMhiMZKxD-28" value="Gagné avec letter : +5&lt;br&gt;Gagné avec mots : +15&lt;br&gt;perdu avec lettre : -10&lt;br&gt;Perdu avec mot : -5&lt;br&gt;(récompenses adaptatives)" style="rounded=1;whiteSpace=wrap;html=1;" vertex="1" parent="1">
          <mxGeometry x="50" y="210" width="130" height="210" as="geometry" />
        </mxCell>
      </root>
    </mxGraphModel>
  </diagram>
</mxfile>
